<svg xmlns="http://www.w3.org/2000/svg" version="1.1" xmlns:xlink="http://www.w3.org/1999/xlink" xmlns:svgjs="http://svgjs.com/svgjs" width="1550" height="579" preserveAspectRatio="none" viewBox="0 0 1550 579"><g mask="url(&quot;#SvgjsMask1024&quot;)" fill="none"><rect width="1550" height="579" x="0" y="0" fill="url(#SvgjsLinearGradient1025)"></rect><path d="M1550.0000000000002 579L0 579 L0 328.56Q35.44 286.5, 77.5 321.93Q112.17 227.43, 206.66666666666666 262.1Q296.15 222.42, 335.8333333333333 311.91Q385.62 232.53, 465 282.32Q509.41 249.23, 542.5 293.63Q583.03 205, 671.6666666666666 245.53Q720.77 217.13, 749.1666666666666 266.23Q821.24 209.14, 878.3333333333333 281.21Q895.85 221.23, 955.8333333333333 238.75Q1032.56 186.31, 1085 263.03Q1163.94 212.8, 1214.1666666666667 291.74Q1274.25 274.32, 1291.6666666666667 334.4Q1299.26 212.82, 1420.8333333333335 220.41Q1490.86 161.27, 1550.0000000000002 231.3z" fill="#182f5d"></path><path d="M1679.1666666666667 579L0 579 L0 326.49Q82.98 331.98, 77.5 414.96Q94.51 302.81, 206.66666666666666 319.82Q278.16 262.15, 335.8333333333333 333.64Q430.28 298.92, 465 393.37Q517.29 316.5, 594.1666666666666 368.79Q639.87 336.99, 671.6666666666666 382.69Q713.68 295.54, 800.8333333333333 337.56Q900.42 307.98, 929.9999999999999 407.56Q984.34 332.73, 1059.1666666666665 387.07Q1088.49 338.89, 1136.6666666666665 368.22Q1149.06 303.12, 1214.1666666666665 315.51Q1292.47 264.64, 1343.3333333333333 342.94Q1434.58 305.02, 1472.5 396.27Q1499.43 345.7, 1550 372.64Q1597.83 291.31, 1679.1666666666667 339.14z" fill="#25467d"></path><path d="M1601.6666666666667 579L0 579 L0 440.43Q58.74 370, 129.16666666666666 428.74Q236 406.41, 258.3333333333333 513.24Q286.52 463.93, 335.8333333333333 492.12Q361.79 440.57, 413.3333333333333 466.53Q449.51 373.54, 542.5 409.72Q624.79 362.85, 671.6666666666666 445.14Q734.75 430.72, 749.1666666666666 493.8Q802.12 417.58, 878.3333333333333 470.53Q924.35 387.38, 1007.4999999999999 433.39Q1036.82 385.2, 1085 414.52Q1189.97 390.32, 1214.1666666666667 495.29Q1237.62 441.25, 1291.6666666666667 464.7Q1302.85 398.38, 1369.1666666666667 409.56Q1452.32 415.21, 1446.6666666666667 498.36Q1498.09 472.29, 1524.1666666666667 523.71Q1541.99 464.03, 1601.6666666666667 481.85z" fill="#356cb1"></path><path d="M1653.3333333333335 579L0 579 L0 554.04Q88.55 513.43, 129.16666666666666 601.98Q137.09 532.4, 206.66666666666666 540.32Q281.24 485.73, 335.8333333333333 560.3Q414.97 510.27, 465 589.41Q512.85 559.75, 542.5 607.6Q566.04 553.64, 620 577.18Q694.7 522.72, 749.1666666666666 597.42Q758.54 529.29, 826.6666666666666 538.66Q858.74 493.23, 904.1666666666666 525.3Q932.42 476.05, 981.6666666666666 504.3Q1039.63 433.1, 1110.8333333333333 491.07Q1231.8 482.87, 1240 603.83Q1247.03 533.36, 1317.5 540.39Q1389.89 483.62, 1446.6666666666667 556.01Q1503.81 535.65, 1524.1666666666667 592.8Q1559.22 498.69, 1653.3333333333335 533.75z" fill="white"></path></g><defs><mask id="SvgjsMask1024"><rect width="1550" height="579" fill="#ffffff"></rect></mask><linearGradient x1="15.66%" y1="-41.93%" x2="84.34%" y2="141.93%" gradientUnits="userSpaceOnUse" id="SvgjsLinearGradient1025"><stop stop-color="#0e2a47" offset="0"></stop><stop stop-color="rgba(133, 168, 214, 1)" offset="1"></stop></linearGradient></defs></svg>